<?xml version="1.0" encoding="utf-8"?>
<!-- Generator: Adobe Illustrator 28.0.0, SVG Export Plug-In . SVG Version: 6.00 Build 0)  -->
<svg version="1.1" id="Ebene_1" xmlns="http://www.w3.org/2000/svg" xmlns:xlink="http://www.w3.org/1999/xlink" x="0px" y="0px"
	 viewBox="0 0 838.3 479.1" style="enable-background:new 0 0 838.3 479.1;" xml:space="preserve">
<style type="text/css">
	.st0{fill:#1146F0;}
	.st1{fill:#1A50FF;}
	.st2{fill:#2156FF;}
</style>
<ellipse id="Ellipse_5" class="st0" cx="419.6" cy="202.1" rx="421.5" ry="277"/>
<path id="Pfad_15" class="st1" d="M-0.4,250.4c132,134.1,226.7,0,226.7,0s48.9-84.2,101.9-94.6S430.1,236.9,441.5,264
	s31.2,70.7,49.9,71.7c18.7,1,62.4,2.1,69.7-71.7s78-110.2,124.8-52s152.8,83.2,152.8,83.2V-16.8h-839V250.4z"/>
<path id="Pfad_16" class="st2" d="M121.6,102c132,69.5,226.7,0,226.7,0s48.9-43.6,101.9-49s101.9,42,113.3,56s31.2,36.6,49.9,37.2
	s62.4,1.1,69.7-37.2S761,51.8,807.8,82s152.8,43.1,152.8,43.1V-36.5h-839V102z"/>
<path class="st2" d="M420-38.4c0,556.6,0,556.6,0,556.6"/>
</svg>
